<svg width="27" height="26" viewBox="0 0 27 26" fill="none" xmlns="http://www.w3.org/2000/svg">
<path d="M23.9645 11.31L22.9029 15.8384C21.9929 19.7492 20.1945 21.3309 16.8145 21.0059C16.2729 20.9625 15.6879 20.865 15.0595 20.7134L13.2395 20.28C8.72204 19.2075 7.32454 16.9759 8.38621 12.4475L9.44788 7.90838C9.66454 6.98755 9.92454 6.18588 10.2495 5.52505C11.517 2.90338 13.6729 2.19922 17.2912 3.05505L19.1004 3.47755C23.6395 4.53922 25.0262 6.78172 23.9645 11.31Z" stroke="white" stroke-width="1.5" stroke-linecap="round" stroke-linejoin="round"/>
<path d="M16.8149 21.0057C16.1432 21.4607 15.2982 21.8399 14.269 22.1757L12.5574 22.7391C8.25655 24.1257 5.99238 22.9666 4.59488 18.6657L3.20821 14.3866C1.82155 10.0857 2.96988 7.81074 7.27071 6.42407L8.98238 5.86074C9.42655 5.7199 9.84905 5.60074 10.2499 5.5249C9.92488 6.18574 9.66488 6.9874 9.44821 7.90824L8.38655 12.4474C7.32488 16.9757 8.72238 19.2074 13.2399 20.2799L15.0599 20.7132C15.6882 20.8649 16.2732 20.9624 16.8149 21.0057Z" stroke="white" stroke-width="1.5" stroke-linecap="round" stroke-linejoin="round"/>
<path d="M14.1934 9.24097L19.4475 10.5735" stroke="white" stroke-width="1.5" stroke-linecap="round" stroke-linejoin="round"/>
<path d="M13.1318 13.4333L16.2735 14.235" stroke="white" stroke-width="1.5" stroke-linecap="round" stroke-linejoin="round"/>
</svg>
