<svg width="26" height="26" viewBox="0 0 26 26" fill="none" xmlns="http://www.w3.org/2000/svg">
<path d="M13.7341 21.62C14.0317 21.6893 14.0589 22.0791 13.769 22.1757L12.0574 22.7391C7.75655 24.1257 5.49238 22.9666 4.09488 18.6657L2.70821 14.3866C1.32155 10.0857 2.46988 7.81075 6.77071 6.42408L7.42305 6.20805C7.82591 6.07463 8.21662 6.4782 8.0999 6.88622C8.02971 7.1316 7.96267 7.38922 7.89738 7.65908L6.83571 12.1982C5.64405 17.3007 7.38821 20.1174 12.4907 21.3307L13.7341 21.62Z" fill="#F9BB33"/>
<path d="M18.6009 3.47755L16.7917 3.05505C13.1734 2.19922 11.0175 2.90338 9.75003 5.52505C9.42503 6.18588 9.16503 6.98755 8.94837 7.90838L7.8867 12.4475C6.82503 16.9759 8.22253 19.2075 12.74 20.28L14.56 20.7134C15.1884 20.8651 15.7734 20.9625 16.315 21.0059C19.695 21.3309 21.4934 19.7492 22.4034 15.8384L23.465 11.31C24.5267 6.78172 23.14 4.53922 18.6009 3.47755ZM16.5642 14.4409C16.4667 14.8092 16.1417 15.0476 15.7734 15.0476C15.7084 15.0476 15.6434 15.0367 15.5675 15.0259L12.415 14.2242C11.9817 14.1159 11.7217 13.6717 11.83 13.2384C11.9384 12.8051 12.3825 12.5451 12.8159 12.6534L15.9684 13.4551C16.4125 13.5634 16.6725 14.0076 16.5642 14.4409ZM19.7384 10.7792C19.6409 11.1475 19.3159 11.3859 18.9475 11.3859C18.8825 11.3859 18.8175 11.375 18.7417 11.3642L13.4875 10.0317C13.0542 9.92338 12.7942 9.47922 12.9025 9.04588C13.0109 8.61255 13.455 8.35255 13.8884 8.46088L19.1425 9.79338C19.5867 9.89088 19.8467 10.335 19.7384 10.7792Z" fill="#F9BB33"/>
</svg>
