<svg width="26" height="26" viewBox="0 0 26 26" fill="none" xmlns="http://www.w3.org/2000/svg">
<path d="M19.2915 14.6147C18.854 15.0417 18.604 15.6563 18.6665 16.3126C18.7603 17.4376 19.7915 18.2605 20.9165 18.2605H22.8957V19.5001C22.8957 21.6563 21.1353 23.4167 18.979 23.4167H7.02067C4.86442 23.4167 3.104 21.6563 3.104 19.5001V12.4897C3.104 10.3334 4.86442 8.573 7.02067 8.573H18.979C21.1353 8.573 22.8957 10.3334 22.8957 12.4897V13.9897H20.7915C20.2082 13.9897 19.6769 14.2188 19.2915 14.6147Z" stroke="white" stroke-width="1.5" stroke-linecap="round" stroke-linejoin="round"/>
<path d="M3.104 13.4271V8.66675C3.104 7.42716 3.86442 6.32295 5.02067 5.88545L13.2915 2.76045C14.5832 2.27087 15.9686 3.22923 15.9686 4.61465V8.57297" stroke="white" stroke-width="1.5" stroke-linecap="round" stroke-linejoin="round"/>
<path d="M23.9986 15.0522V17.1981C23.9986 17.771 23.5403 18.2397 22.9569 18.2606H20.9153C19.7903 18.2606 18.759 17.4376 18.6653 16.3126C18.6028 15.6564 18.8528 15.0418 19.2903 14.6147C19.6757 14.2189 20.2069 13.9897 20.7903 13.9897H22.9569C23.5403 14.0106 23.9986 14.4793 23.9986 15.0522Z" stroke="white" stroke-width="1.5" stroke-linecap="round" stroke-linejoin="round"/>
<path d="M7.7915 13H15.0832" stroke="white" stroke-width="1.5" stroke-linecap="round" stroke-linejoin="round"/>
</svg>
