<svg width="26" height="26" viewBox="0 0 26 26" fill="none" xmlns="http://www.w3.org/2000/svg">
<path d="M4.1665 9.12323C3.96227 9.29534 3.77392 9.48597 3.604 9.69255V8.6665C3.604 7.63389 4.23662 6.71662 5.19739 6.35298C5.19747 6.35295 5.19754 6.35293 5.19762 6.3529L13.4651 3.22916C13.6397 3.16605 13.8205 3.13525 13.9894 3.13525C14.7705 3.13525 15.4686 3.77042 15.4686 4.61442V8.07275H14.9061V4.61442C14.9061 4.30846 14.7639 4.06854 14.5792 3.91552C14.4082 3.77396 14.1919 3.69775 13.9894 3.69775C13.871 3.69775 13.7579 3.72132 13.6529 3.7626L5.39635 6.87574L5.39622 6.87579C4.64547 7.15909 4.1665 7.86905 4.1665 8.6665V9.12323Z" fill="#F9BB33" stroke="#F9BB33"/>
<path d="M20.2694 16.1806L20.2695 16.1806L20.2686 16.1708C20.2528 16.0076 20.3157 15.8499 20.4265 15.7391L20.4266 15.7393L20.4359 15.7295C20.5209 15.6398 20.6458 15.5835 20.8021 15.5835H22.363C22.374 15.5844 22.3809 15.5867 22.3848 15.5884C22.3893 15.5904 22.3917 15.5923 22.3927 15.5934C22.3938 15.5945 22.3944 15.5955 22.3947 15.5963C22.395 15.597 22.3959 15.5993 22.3959 15.6043V16.646C22.3959 16.651 22.395 16.6537 22.3944 16.6551C22.3938 16.6566 22.3929 16.6581 22.3915 16.6594C22.3902 16.6608 22.3882 16.6623 22.3852 16.6637C22.3829 16.6647 22.3788 16.6662 22.3723 16.6668H20.8646C20.5341 16.6668 20.2881 16.4239 20.2694 16.1806Z" fill="#F9BB33" stroke="#F9BB33"/>
<path d="M4.9658 9.76495L4.96581 9.76497L4.96953 9.76214C5.54099 9.32673 6.24759 9.07275 7.02067 9.07275H18.979C20.8591 9.07275 22.3957 10.6093 22.3957 12.4894V12.9478C22.3957 13.2445 22.1508 13.4894 21.854 13.4894H20.7915C20.0762 13.4894 19.4172 13.7708 18.9374 14.2614C18.3014 14.8874 17.9767 15.8291 18.2466 16.8084C18.5767 18.0329 19.7645 18.7603 20.9478 18.7603H21.854C22.1508 18.7603 22.3957 19.0051 22.3957 19.3019V19.4998C22.3957 21.3799 20.8591 22.9165 18.979 22.9165H7.02067C5.14056 22.9165 3.604 21.3799 3.604 19.4998V12.4894C3.604 11.3717 4.13945 10.3824 4.9658 9.76495ZM7.7915 14.2811H15.0832C15.7864 14.2811 16.3644 13.7031 16.3644 12.9998C16.3644 12.2966 15.7864 11.7186 15.0832 11.7186H7.7915C7.08828 11.7186 6.51025 12.2966 6.51025 12.9998C6.51025 13.7031 7.08828 14.2811 7.7915 14.2811Z" fill="#F9BB33" stroke="#F9BB33"/>
</svg>
