<svg width="25" height="26" viewBox="0 0 25 26" fill="none" xmlns="http://www.w3.org/2000/svg">
<rect y="0.5" width="25" height="25" rx="12.5" fill="#021129"/>
<path d="M15.8644 7.02175V5.91675C15.8644 5.62633 15.6236 5.3855 15.3332 5.3855C15.0428 5.3855 14.8019 5.62633 14.8019 5.91675V6.97925H10.1978V5.91675C10.1978 5.62633 9.95692 5.3855 9.6665 5.3855C9.37609 5.3855 9.13525 5.62633 9.13525 5.91675V7.02175C7.22275 7.19883 6.29484 8.33925 6.15317 10.0322C6.139 10.2376 6.309 10.4076 6.50734 10.4076H18.4923C18.6978 10.4076 18.8678 10.2305 18.8465 10.0322C18.7048 8.33925 17.7769 7.19883 15.8644 7.02175Z" fill="#FEF8EB"/>
<path d="M18.1667 11.47H6.83333C6.44375 11.47 6.125 11.7887 6.125 12.1783V16.5416C6.125 18.6666 7.1875 20.0833 9.66667 20.0833H15.3333C17.8125 20.0833 18.875 18.6666 18.875 16.5416V12.1783C18.875 11.7887 18.5562 11.47 18.1667 11.47ZM10.5237 17.3987C10.4883 17.4271 10.4529 17.4625 10.4175 17.4837C10.375 17.5121 10.3325 17.5333 10.29 17.5475C10.2475 17.5687 10.205 17.5829 10.1625 17.59C10.1129 17.5971 10.0704 17.6041 10.0208 17.6041C9.92875 17.6041 9.83667 17.5829 9.75167 17.5475C9.65958 17.5121 9.58875 17.4625 9.51792 17.3987C9.39042 17.2641 9.3125 17.08 9.3125 16.8958C9.3125 16.7116 9.39042 16.5275 9.51792 16.3929C9.58875 16.3291 9.65958 16.2796 9.75167 16.2441C9.87917 16.1875 10.0208 16.1733 10.1625 16.2016C10.205 16.2087 10.2475 16.2229 10.29 16.2441C10.3325 16.2583 10.375 16.2796 10.4175 16.3079C10.4529 16.3362 10.4883 16.3646 10.5237 16.3929C10.6512 16.5275 10.7292 16.7116 10.7292 16.8958C10.7292 17.08 10.6512 17.2641 10.5237 17.3987ZM10.5237 14.9196C10.3892 15.0471 10.205 15.125 10.0208 15.125C9.83667 15.125 9.6525 15.0471 9.51792 14.9196C9.39042 14.785 9.3125 14.6008 9.3125 14.4166C9.3125 14.2325 9.39042 14.0483 9.51792 13.9137C9.71625 13.7154 10.0279 13.6516 10.29 13.765C10.3821 13.8004 10.46 13.85 10.5237 13.9137C10.6512 14.0483 10.7292 14.2325 10.7292 14.4166C10.7292 14.6008 10.6512 14.785 10.5237 14.9196ZM13.0029 17.3987C12.8683 17.5262 12.6842 17.6041 12.5 17.6041C12.3158 17.6041 12.1317 17.5262 11.9971 17.3987C11.8696 17.2641 11.7917 17.08 11.7917 16.8958C11.7917 16.7116 11.8696 16.5275 11.9971 16.3929C12.2592 16.1308 12.7408 16.1308 13.0029 16.3929C13.1304 16.5275 13.2083 16.7116 13.2083 16.8958C13.2083 17.08 13.1304 17.2641 13.0029 17.3987ZM13.0029 14.9196C12.9675 14.9479 12.9321 14.9762 12.8967 15.0046C12.8542 15.0329 12.8117 15.0541 12.7692 15.0683C12.7267 15.0896 12.6842 15.1037 12.6417 15.1108C12.5921 15.1179 12.5496 15.125 12.5 15.125C12.3158 15.125 12.1317 15.0471 11.9971 14.9196C11.8696 14.785 11.7917 14.6008 11.7917 14.4166C11.7917 14.2325 11.8696 14.0483 11.9971 13.9137C12.0608 13.85 12.1387 13.8004 12.2308 13.765C12.4929 13.6516 12.8046 13.7154 13.0029 13.9137C13.1304 14.0483 13.2083 14.2325 13.2083 14.4166C13.2083 14.6008 13.1304 14.785 13.0029 14.9196ZM15.4821 17.3987C15.3475 17.5262 15.1633 17.6041 14.9792 17.6041C14.795 17.6041 14.6108 17.5262 14.4762 17.3987C14.3488 17.2641 14.2708 17.08 14.2708 16.8958C14.2708 16.7116 14.3488 16.5275 14.4762 16.3929C14.7383 16.1308 15.22 16.1308 15.4821 16.3929C15.6096 16.5275 15.6875 16.7116 15.6875 16.8958C15.6875 17.08 15.6096 17.2641 15.4821 17.3987ZM15.4821 14.9196C15.4467 14.9479 15.4112 14.9762 15.3758 15.0046C15.3333 15.0329 15.2908 15.0541 15.2483 15.0683C15.2058 15.0896 15.1633 15.1037 15.1208 15.1108C15.0712 15.1179 15.0217 15.125 14.9792 15.125C14.795 15.125 14.6108 15.0471 14.4762 14.9196C14.3488 14.785 14.2708 14.6008 14.2708 14.4166C14.2708 14.2325 14.3488 14.0483 14.4762 13.9137C14.5471 13.85 14.6179 13.8004 14.71 13.765C14.8375 13.7083 14.9792 13.6941 15.1208 13.7225C15.1633 13.7296 15.2058 13.7437 15.2483 13.765C15.2908 13.7791 15.3333 13.8004 15.3758 13.8287C15.4112 13.8571 15.4467 13.8854 15.4821 13.9137C15.6096 14.0483 15.6875 14.2325 15.6875 14.4166C15.6875 14.6008 15.6096 14.785 15.4821 14.9196Z" fill="#FEF8EB"/>
</svg>
