<svg width="25" height="26" viewBox="0 0 25 26" fill="none" xmlns="http://www.w3.org/2000/svg">
<rect y="0.5" width="25" height="25" rx="12.5" fill="#021129"/>
<g clip-path="url(#clip0_265_1853)">
<path d="M18.6058 10.4853C17.862 7.21284 15.0074 5.7395 12.4999 5.7395C12.4999 5.7395 12.4999 5.7395 12.4929 5.7395C9.99245 5.7395 7.13078 7.20575 6.38703 10.4783C5.55828 14.1333 7.79661 17.2287 9.82245 19.1766C10.5733 19.8991 11.5366 20.2603 12.4999 20.2603C13.4633 20.2603 14.4266 19.8991 15.1704 19.1766C17.1962 17.2287 19.4345 14.1403 18.6058 10.4853ZM12.4999 14.0341C11.2674 14.0341 10.2687 13.0353 10.2687 11.8028C10.2687 10.5703 11.2674 9.57159 12.4999 9.57159C13.7324 9.57159 14.7312 10.5703 14.7312 11.8028C14.7312 13.0353 13.7324 14.0341 12.4999 14.0341Z" fill="#FEF8EB"/>
</g>
<defs>
<clipPath id="clip0_265_1853">
<rect width="17" height="17" fill="white" transform="translate(4 4.5)"/>
</clipPath>
</defs>
</svg>
