<svg width="32" height="32" viewBox="0 0 32 32" fill="none" xmlns="http://www.w3.org/2000/svg">
<path d="M10.5065 16.0932C10.5065 15.5465 10.9598 15.0932 11.5065 15.0932H18.8132V3.81317C18.7998 3.17317 18.2932 2.6665 17.6532 2.6665C9.79982 2.6665 4.31982 8.1465 4.31982 15.9998C4.31982 23.8532 9.79982 29.3332 17.6532 29.3332C18.2798 29.3332 18.7998 28.8265 18.7998 28.1865V17.0798H11.5065C10.9465 17.0932 10.5065 16.6398 10.5065 16.0932Z" fill="#F9BB33"/>
<path d="M27.3865 15.3869L23.5998 11.5869C23.2131 11.2002 22.5731 11.2002 22.1865 11.5869C21.7998 11.9735 21.7998 12.6135 22.1865 13.0002L24.2665 15.0802H18.7998V17.0802H24.2531L22.1731 19.1602C21.7865 19.5469 21.7865 20.1869 22.1731 20.5735C22.3731 20.7735 22.6265 20.8669 22.8798 20.8669C23.1331 20.8669 23.3865 20.7735 23.5865 20.5735L27.3731 16.7735C27.7731 16.4002 27.7731 15.7735 27.3865 15.3869Z" fill="#F9BB33"/>
</svg>
