<svg width="32" height="32" viewBox="0 0 32 32" fill="none" xmlns="http://www.w3.org/2000/svg">
<path d="M22.6665 3.24023H9.33317C5.33317 3.24023 2.6665 5.9069 2.6665 9.9069V17.9069C2.6665 21.9069 5.33317 24.5736 9.33317 24.5736V27.4136C9.33317 28.4802 10.5198 29.1202 11.3998 28.5202L17.3332 24.5736H22.6665C26.6665 24.5736 29.3332 21.9069 29.3332 17.9069V9.9069C29.3332 5.9069 26.6665 3.24023 22.6665 3.24023ZM15.9998 19.4669C15.4398 19.4669 14.9998 19.0136 14.9998 18.4669C14.9998 17.9202 15.4398 17.4669 15.9998 17.4669C16.5598 17.4669 16.9998 17.9202 16.9998 18.4669C16.9998 19.0136 16.5598 19.4669 15.9998 19.4669ZM17.6798 13.9336C17.1598 14.2802 16.9998 14.5069 16.9998 14.8802V15.1602C16.9998 15.7069 16.5465 16.1602 15.9998 16.1602C15.4532 16.1602 14.9998 15.7069 14.9998 15.1602V14.8802C14.9998 13.3336 16.1332 12.5736 16.5598 12.2802C17.0532 11.9469 17.2132 11.7202 17.2132 11.3736C17.2132 10.7069 16.6665 10.1602 15.9998 10.1602C15.3332 10.1602 14.7865 10.7069 14.7865 11.3736C14.7865 11.9202 14.3332 12.3736 13.7865 12.3736C13.2398 12.3736 12.7865 11.9202 12.7865 11.3736C12.7865 9.60023 14.2265 8.16023 15.9998 8.16023C17.7732 8.16023 19.2132 9.60023 19.2132 11.3736C19.2132 12.8936 18.0932 13.6536 17.6798 13.9336Z" fill="#F9BB33"/>
</svg>
