<svg width="32" height="32" viewBox="0 0 32 32" fill="none" xmlns="http://www.w3.org/2000/svg">
<path d="M24 2.6665H8C5.78667 2.6665 4 4.43984 4 6.6265V21.1732C4 23.3598 5.78667 25.1465 8 25.1465H9.01333C10.0667 25.1465 11.0933 25.5598 11.84 26.3065L14.12 28.5598C15.16 29.5865 16.84 29.5865 17.88 28.5598L20.16 26.3065C20.9067 25.5598 21.9333 25.1465 22.9867 25.1465H24C26.2133 25.1465 28 23.3598 28 21.1732V6.6265C28 4.43984 26.2133 2.6665 24 2.6665ZM16 7.39984C17.44 7.39984 18.6 8.57317 18.6 9.99984C18.6 11.4132 17.48 12.5465 16.0933 12.5998C16.04 12.5998 15.96 12.5998 15.8933 12.5998C14.4933 12.5465 13.3867 11.4132 13.3867 9.99984C13.4 8.57317 14.56 7.39984 16 7.39984ZM19.6667 19.5865C17.6533 20.9332 14.3467 20.9332 12.3333 19.5865C10.56 18.4132 10.56 16.4665 12.3333 15.2798C14.36 13.9332 17.6667 13.9332 19.6667 15.2798C21.44 16.4665 21.44 18.3998 19.6667 19.5865Z" fill="#F9BB33"/>
</svg>
