<svg xmlns="http://www.w3.org/2000/svg" xmlns:xlink="http://www.w3.org/1999/xlink" width="1080" zoomAndPan="magnify" viewBox="0 0 810 809.999993" height="1080" preserveAspectRatio="xMidYMid meet" version="1.0"><defs><clipPath id="75b6b07c0c"><path d="M 119.246094 116.160156 L 627.960938 116.160156 L 627.960938 624.875 L 119.246094 624.875 Z M 119.246094 116.160156 " clip-rule="nonzero"/></clipPath><clipPath id="7d227ca309"><path d="M 165.746094 116.160156 L 581.460938 116.160156 C 593.792969 116.160156 605.621094 121.058594 614.339844 129.78125 C 623.0625 138.5 627.960938 150.328125 627.960938 162.660156 L 627.960938 578.375 C 627.960938 590.707031 623.0625 602.535156 614.339844 611.257812 C 605.621094 619.976562 593.792969 624.875 581.460938 624.875 L 165.746094 624.875 C 153.414062 624.875 141.585938 619.976562 132.863281 611.257812 C 124.144531 602.535156 119.246094 590.707031 119.246094 578.375 L 119.246094 162.660156 C 119.246094 150.328125 124.144531 138.5 132.863281 129.78125 C 141.585938 121.058594 153.414062 116.160156 165.746094 116.160156 Z M 165.746094 116.160156 " clip-rule="nonzero"/></clipPath><clipPath id="c719ab1d7c"><path d="M 196 241.921875 L 566 241.921875 L 566 648 L 196 648 Z M 196 241.921875 " clip-rule="nonzero"/></clipPath><clipPath id="acfe4bffe6"><path d="M 217 315 L 627.234375 315 L 627.234375 649 L 217 649 Z M 217 315 " clip-rule="nonzero"/></clipPath><clipPath id="5be733048f"><path d="M 182.484375 413 L 579 413 L 579 691.921875 L 182.484375 691.921875 Z M 182.484375 413 " clip-rule="nonzero"/></clipPath><clipPath id="1cfbf91935"><path d="M 182.484375 398 L 586 398 L 586 691.921875 L 182.484375 691.921875 Z M 182.484375 398 " clip-rule="nonzero"/></clipPath></defs><rect x="-81" width="972" fill="#ffffff" y="-80.999999" height="971.999992" fill-opacity="1"/><rect x="-81" width="972" fill="#ffffff" y="-80.999999" height="971.999992" fill-opacity="1"/><g clip-path="url(#75b6b07c0c)"><g clip-path="url(#7d227ca309)"><path fill="#d9edeb" d="M 119.246094 116.160156 L 627.960938 116.160156 L 627.960938 624.875 L 119.246094 624.875 Z M 119.246094 116.160156 " fill-opacity="1" fill-rule="nonzero"/></g></g><g clip-path="url(#c719ab1d7c)"><path fill="#468c60" d="M 196.722656 534.453125 L 410.691406 241.859375 L 565.628906 355.332031 L 351.660156 647.929688 Z M 196.722656 534.453125 " fill-opacity="1" fill-rule="nonzero"/></g><path fill="#305439" d="M 427.617188 284.015625 C 423.167969 290.09375 414.417969 291.476562 408.304688 287.09375 L 238.78125 518.914062 C 244.765625 523.390625 246.117188 532.082031 241.761719 538.160156 L 334.3125 605.9375 C 334.386719 605.832031 334.445312 605.71875 334.519531 605.613281 C 338.992188 599.496094 347.828125 598.132812 353.933594 602.609375 C 353.96875 602.632812 354 602.65625 354.039062 602.6875 L 523.257812 371.28125 C 523.222656 371.257812 523.183594 371.242188 523.144531 371.214844 C 517.027344 366.734375 515.660156 357.898438 520.132812 351.777344 C 520.207031 351.675781 520.304688 351.582031 520.378906 351.480469 L 427.820312 283.695312 C 427.75 283.796875 427.691406 283.90625 427.617188 284.015625 Z M 427.617188 284.015625 " fill-opacity="1" fill-rule="nonzero"/><path fill="#468c60" d="M 412.949219 401.445312 C 436.929688 419 442.140625 452.691406 424.585938 476.691406 C 407.039062 500.6875 373.378906 505.90625 349.394531 488.34375 C 325.410156 470.78125 320.199219 437.09375 337.746094 413.09375 C 355.296875 389.097656 388.960938 383.875 412.949219 401.445312 Z M 412.949219 401.445312 " fill-opacity="1" fill-rule="nonzero"/><path fill="#468c60" d="M 460.566406 336.3125 C 471.035156 343.976562 473.308594 358.683594 465.65625 369.15625 C 458 379.625 443.292969 381.90625 432.835938 374.242188 C 422.371094 366.578125 420.09375 351.875 427.75 341.398438 C 435.410156 330.921875 450.109375 328.648438 460.566406 336.3125 Z M 460.566406 336.3125 " fill-opacity="1" fill-rule="nonzero"/><path fill="#468c60" d="M 331.035156 513.457031 C 341.503906 521.121094 343.769531 535.828125 336.117188 546.296875 C 328.460938 556.769531 313.761719 559.050781 303.296875 551.390625 C 292.832031 543.726562 290.554688 529.015625 298.210938 518.542969 C 305.875 508.070312 320.558594 505.792969 331.035156 513.457031 Z M 331.035156 513.457031 " fill-opacity="1" fill-rule="nonzero"/><path fill="#4e9b6b" d="M 204.976562 502.246094 L 491.769531 280.683594 L 609.089844 432.777344 L 322.300781 654.339844 Z M 204.976562 502.246094 " fill-opacity="1" fill-rule="nonzero"/><path fill="#396042" d="M 496.320312 325.898438 C 490.355469 330.503906 481.570312 329.398438 476.917969 323.484375 L 249.703125 499.027344 C 254.203125 504.992188 253.082031 513.71875 247.207031 518.339844 L 317.292969 609.195312 C 317.398438 609.109375 317.484375 609.019531 317.585938 608.9375 C 323.582031 604.304688 332.441406 605.453125 337.082031 611.449219 C 337.101562 611.484375 337.125 611.519531 337.15625 611.554688 L 563.960938 436.332031 C 563.933594 436.292969 563.90625 436.265625 563.875 436.230469 C 559.25 430.230469 560.390625 421.359375 566.386719 416.726562 C 566.488281 416.644531 566.605469 416.578125 566.707031 416.507812 L 496.613281 325.648438 C 496.519531 325.730469 496.425781 325.820312 496.320312 325.898438 Z M 496.320312 325.898438 " fill-opacity="1" fill-rule="nonzero"/><path fill="#4e9b6b" d="M 460.832031 467.523438 C 460.832031 469.285156 460.746094 471.046875 460.574219 472.800781 C 460.398438 474.554688 460.140625 476.296875 459.796875 478.027344 C 459.453125 479.757812 459.027344 481.464844 458.515625 483.152344 C 458.003906 484.839844 457.410156 486.496094 456.738281 488.128906 C 456.0625 489.757812 455.308594 491.347656 454.480469 492.902344 C 453.648438 494.460938 452.742188 495.96875 451.765625 497.4375 C 450.785156 498.902344 449.738281 500.316406 448.621094 501.679688 C 447.5 503.042969 446.320312 504.347656 445.074219 505.59375 C 443.828125 506.84375 442.523438 508.023438 441.160156 509.144531 C 439.800781 510.261719 438.386719 511.3125 436.921875 512.292969 C 435.457031 513.269531 433.945312 514.175781 432.390625 515.007812 C 430.835938 515.839844 429.246094 516.59375 427.617188 517.265625 C 425.992188 517.941406 424.332031 518.535156 422.648438 519.046875 C 420.960938 519.558594 419.253906 519.988281 417.527344 520.332031 C 415.796875 520.675781 414.058594 520.933594 412.304688 521.105469 C 410.550781 521.277344 408.792969 521.367188 407.03125 521.367188 C 405.269531 521.367188 403.511719 521.277344 401.757812 521.105469 C 400.003906 520.933594 398.261719 520.675781 396.535156 520.332031 C 394.804688 519.988281 393.097656 519.558594 391.410156 519.046875 C 389.726562 518.535156 388.070312 517.941406 386.441406 517.265625 C 384.8125 516.59375 383.222656 515.839844 381.667969 515.007812 C 380.113281 514.175781 378.605469 513.269531 377.140625 512.292969 C 375.671875 511.3125 374.261719 510.261719 372.898438 509.144531 C 371.535156 508.023438 370.230469 506.84375 368.984375 505.59375 C 367.738281 504.347656 366.558594 503.042969 365.441406 501.679688 C 364.320312 500.316406 363.273438 498.902344 362.292969 497.4375 C 361.316406 495.96875 360.410156 494.460938 359.582031 492.902344 C 358.75 491.347656 357.996094 489.757812 357.324219 488.128906 C 356.648438 486.496094 356.054688 484.839844 355.542969 483.152344 C 355.03125 481.464844 354.605469 479.757812 354.261719 478.027344 C 353.917969 476.296875 353.660156 474.554688 353.488281 472.800781 C 353.3125 471.046875 353.226562 469.285156 353.226562 467.523438 C 353.226562 465.757812 353.3125 464 353.488281 462.246094 C 353.660156 460.488281 353.917969 458.746094 354.261719 457.019531 C 354.605469 455.289062 355.03125 453.578125 355.542969 451.890625 C 356.054688 450.203125 356.648438 448.546875 357.324219 446.917969 C 357.996094 445.289062 358.75 443.695312 359.582031 442.140625 C 360.410156 440.585938 361.316406 439.074219 362.292969 437.609375 C 363.273438 436.140625 364.320312 434.726562 365.441406 433.363281 C 366.558594 432 367.738281 430.695312 368.984375 429.449219 C 370.230469 428.203125 371.535156 427.019531 372.898438 425.902344 C 374.261719 424.78125 375.671875 423.734375 377.140625 422.753906 C 378.605469 421.773438 380.113281 420.867188 381.667969 420.035156 C 383.222656 419.207031 384.8125 418.453125 386.441406 417.777344 C 388.070312 417.101562 389.726562 416.507812 391.410156 415.996094 C 393.097656 415.484375 394.804688 415.058594 396.535156 414.714844 C 398.261719 414.371094 400.003906 414.109375 401.757812 413.9375 C 403.511719 413.765625 405.269531 413.679688 407.03125 413.679688 C 408.792969 413.679688 410.550781 413.765625 412.304688 413.9375 C 414.058594 414.109375 415.796875 414.371094 417.527344 414.714844 C 419.253906 415.058594 420.960938 415.484375 422.648438 415.996094 C 424.332031 416.507812 425.992188 417.101562 427.617188 417.777344 C 429.246094 418.453125 430.835938 419.207031 432.390625 420.035156 C 433.945312 420.867188 435.457031 421.773438 436.921875 422.753906 C 438.386719 423.734375 439.800781 424.78125 441.160156 425.902344 C 442.523438 427.019531 443.828125 428.203125 445.074219 429.449219 C 446.320312 430.695312 447.5 432 448.621094 433.363281 C 449.738281 434.726562 450.785156 436.140625 451.765625 437.609375 C 452.742188 439.074219 453.648438 440.585938 454.480469 442.140625 C 455.308594 443.695312 456.0625 445.289062 456.738281 446.917969 C 457.410156 448.546875 458.003906 450.203125 458.515625 451.890625 C 459.027344 453.578125 459.453125 455.289062 459.796875 457.019531 C 460.140625 458.746094 460.398438 460.488281 460.574219 462.246094 C 460.746094 464 460.832031 465.757812 460.832031 467.523438 Z M 460.832031 467.523438 " fill-opacity="1" fill-rule="nonzero"/><path fill="#4e9b6b" d="M 513.453125 385.304688 C 521.382812 395.578125 519.484375 410.332031 509.214844 418.265625 C 498.953125 426.195312 484.203125 424.296875 476.28125 414.023438 C 468.355469 403.75 470.253906 388.992188 480.523438 381.0625 C 490.78125 373.128906 505.535156 375.03125 513.453125 385.304688 Z M 513.453125 385.304688 " fill-opacity="1" fill-rule="nonzero"/><path fill="#4e9b6b" d="M 339.824219 519.441406 C 347.753906 529.714844 345.855469 544.472656 335.589844 552.40625 C 325.328125 560.335938 310.574219 558.441406 302.644531 548.164062 C 294.726562 537.890625 296.625 523.132812 306.882812 515.199219 C 317.160156 507.269531 331.894531 509.167969 339.824219 519.441406 Z M 339.824219 519.441406 " fill-opacity="1" fill-rule="nonzero"/><g clip-path="url(#acfe4bffe6)"><path fill="#58b079" d="M 627.152344 487.171875 L 302.9375 648.984375 L 217.25 477.042969 L 541.476562 315.226562 Z M 627.152344 487.171875 " fill-opacity="1" fill-rule="nonzero"/></g><path fill="#457350" d="M 537.199219 360.457031 C 530.460938 363.824219 522.050781 361.03125 518.625 354.332031 L 261.753906 482.535156 C 265.019531 489.261719 262.238281 497.609375 255.582031 501.007812 L 306.761719 603.714844 C 306.871094 603.652344 306.976562 603.578125 307.101562 603.519531 C 313.878906 600.136719 322.351562 602.976562 325.730469 609.757812 C 325.75 609.796875 325.769531 609.835938 325.785156 609.878906 L 582.203125 481.902344 C 582.175781 481.867188 582.160156 481.828125 582.140625 481.789062 C 578.757812 475.003906 581.589844 466.523438 588.367188 463.136719 C 588.480469 463.078125 588.601562 463.039062 588.714844 462.984375 L 537.53125 360.265625 C 537.425781 360.332031 537.324219 360.398438 537.199219 360.457031 Z M 537.199219 360.457031 " fill-opacity="1" fill-rule="nonzero"/><path fill="#58b079" d="M 470.347656 458.078125 C 483.617188 484.683594 472.808594 517.015625 446.21875 530.289062 C 419.621094 543.5625 387.320312 532.746094 374.058594 506.140625 C 360.796875 479.523438 371.605469 447.195312 398.191406 433.917969 C 424.785156 420.648438 457.09375 431.460938 470.347656 458.078125 Z M 470.347656 458.078125 " fill-opacity="1" fill-rule="nonzero"/><path fill="#58b079" d="M 542.515625 422.058594 C 548.308594 433.671875 543.589844 447.785156 531.980469 453.578125 C 520.382812 459.371094 506.277344 454.644531 500.492188 443.035156 C 494.699219 431.417969 499.417969 417.308594 511.027344 411.519531 C 522.632812 405.71875 536.730469 410.445312 542.515625 422.058594 Z M 542.515625 422.058594 " fill-opacity="1" fill-rule="nonzero"/><path fill="#58b079" d="M 346.234375 520.027344 C 352.023438 531.644531 347.300781 545.75 335.703125 551.542969 C 324.09375 557.335938 309.988281 552.617188 304.191406 541.003906 C 298.410156 529.386719 303.125 515.277344 314.738281 509.480469 C 326.347656 503.691406 340.441406 508.40625 346.234375 520.027344 Z M 346.234375 520.027344 " fill-opacity="1" fill-rule="nonzero"/><g clip-path="url(#5be733048f)"><path fill="#e88e30" d="M 578.503906 658.082031 C 578.503906 676.714844 563.414062 691.8125 544.800781 691.8125 L 216.269531 691.8125 C 197.65625 691.8125 182.5625 676.714844 182.5625 658.082031 L 182.5625 447.105469 C 182.5625 428.480469 197.65625 413.375 216.269531 413.375 L 544.800781 413.375 C 563.410156 413.375 578.503906 428.480469 578.503906 447.105469 Z M 578.503906 658.082031 " fill-opacity="1" fill-rule="nonzero"/></g><g clip-path="url(#1cfbf91935)"><path stroke-linecap="butt" transform="matrix(1.75991, 0, 0, 1.761252, 30.70112, 92.393204)" fill="none" stroke-linejoin="miter" d="M 296.363042 313.25443 C 296.363042 322.429809 288.925251 329.86415 279.747315 329.86415 L 117.811666 329.86415 C 108.633729 329.86415 101.195938 322.429809 101.195938 313.25443 L 101.195938 209.333344 C 101.195938 200.157965 108.633729 192.719188 117.811666 192.719188 L 279.749534 192.719188 C 288.925251 192.719188 296.365262 200.157965 296.365262 209.333344 L 296.365262 313.25443 Z M 296.363042 313.25443 " stroke="#f59f40" stroke-width="1.351" stroke-opacity="1" stroke-miterlimit="10"/></g><path fill="#f59f40" d="M 594.554688 560.515625 C 594.554688 579.140625 589.570312 594.246094 570.953125 594.246094 L 479.039062 594.246094 C 460.425781 594.246094 445.332031 579.140625 445.332031 560.515625 L 445.332031 539.921875 C 445.332031 521.292969 460.425781 506.1875 479.039062 506.1875 L 570.953125 506.1875 C 589.570312 506.1875 594.554688 521.292969 594.554688 539.921875 Z M 594.554688 560.515625 " fill-opacity="1" fill-rule="nonzero"/><path fill="#ffffff" d="M 502.371094 548.433594 C 502.371094 557.960938 494.648438 565.6875 485.136719 565.6875 C 475.613281 565.6875 467.890625 557.957031 467.890625 548.433594 C 467.890625 538.902344 475.613281 531.175781 485.136719 531.175781 C 494.648438 531.175781 502.371094 538.902344 502.371094 548.433594 Z M 502.371094 548.433594 " fill-opacity="1" fill-rule="nonzero"/></svg>