<svg width="25" height="26" viewBox="0 0 25 26" fill="none" xmlns="http://www.w3.org/2000/svg">
<rect y="0.5" width="25" height="25" rx="12.5" fill="#021129"/>
<path d="M12.4998 5.91675C8.59692 5.91675 5.4165 9.09716 5.4165 13.0001C5.4165 16.903 8.59692 20.0834 12.4998 20.0834C16.4028 20.0834 19.5832 16.903 19.5832 13.0001C19.5832 9.09716 16.4028 5.91675 12.4998 5.91675ZM15.5811 15.5288C15.4819 15.6988 15.3048 15.7909 15.1207 15.7909C15.0286 15.7909 14.9365 15.7697 14.8515 15.713L12.6557 14.4026C12.1103 14.0767 11.7065 13.3613 11.7065 12.7309V9.82675C11.7065 9.53633 11.9473 9.2955 12.2378 9.2955C12.5282 9.2955 12.769 9.53633 12.769 9.82675V12.7309C12.769 12.9859 12.9815 13.3613 13.2011 13.4888L15.3969 14.7992C15.6519 14.948 15.7369 15.2738 15.5811 15.5288Z" fill="#FEF8EB"/>
</svg>
